<svg width="2383" height="620" viewBox="0 0 2383 620" fill="none" xmlns="http://www.w3.org/2000/svg">
<path d="M207.683 465C207.683 465 77.8403 417.38 106.406 367.113C124.584 335.366 166.133 369.759 231.055 404.152L207.683 465Z" fill="#BABCBD"/>
<path d="M366.091 449.127C464.772 457.063 508.475 412.405 518.862 399.177C518.862 399.177 459.949 324.093 425.231 273.726C401.589 239.429 371.294 190.664 353.96 162.357C347.792 152.285 333.071 152.704 326.78 162.696C262.348 265.035 143.701 341.75 117.102 356.531C138.137 347.8 176.521 375.05 228.458 404.152C228.458 404.152 267.048 424.234 293.169 433.517C326.668 445.423 366.091 449.127 366.091 449.127Z" fill="#FF550C"/>
<path d="M624 343.229C624 318.806 629.232 297.508 639.695 279.333C650.158 260.874 664.657 246.674 683.192 236.735C701.727 226.512 722.952 221.4 746.868 221.4C777.66 221.4 803.071 228.783 823.1 243.551C843.429 258.034 857.031 278.481 863.907 304.891H796.195C792.607 294.668 786.479 286.716 777.809 281.037C769.439 275.073 758.976 272.091 746.42 272.091C728.483 272.091 714.283 278.339 703.819 290.834C693.356 303.045 688.125 320.51 688.125 343.229C688.125 365.664 693.356 383.129 703.819 395.624C714.283 407.836 728.483 413.941 746.42 413.941C771.83 413.941 788.422 403.15 796.195 381.567H863.907C857.031 407.126 843.429 427.43 823.1 442.482C802.772 457.533 777.361 465.058 746.868 465.058C722.952 465.058 701.727 460.089 683.192 450.149C664.657 439.926 650.158 425.727 639.695 407.552C629.232 389.093 624 367.652 624 343.229Z" fill="white"/>
<path d="M958.664 146.002V461.225H895.885V146.002H958.664Z" fill="white"/>
<path d="M1116.99 465.058C1093.07 465.058 1071.55 460.089 1052.42 450.149C1033.28 439.926 1018.19 425.585 1007.13 407.126C996.363 388.667 990.982 367.368 990.982 343.229C990.982 319.09 996.513 297.792 1007.57 279.333C1018.93 260.874 1034.33 246.674 1053.76 236.735C1073.19 226.512 1094.87 221.4 1118.78 221.4C1142.7 221.4 1164.37 226.512 1183.8 236.735C1203.24 246.674 1218.48 260.874 1229.54 279.333C1240.9 297.792 1246.58 319.09 1246.58 343.229C1246.58 367.368 1240.75 388.667 1229.1 407.126C1217.74 425.585 1202.19 439.926 1182.46 450.149C1163.03 460.089 1141.2 465.058 1116.99 465.058ZM1116.99 413.089C1128.35 413.089 1138.96 410.533 1148.83 405.422C1158.99 400.026 1167.06 392.074 1173.04 381.567C1179.02 371.06 1182.01 358.28 1182.01 343.229C1182.01 320.794 1175.73 303.613 1163.18 291.686C1150.92 279.475 1135.82 273.369 1117.89 273.369C1099.95 273.369 1084.85 279.475 1072.6 291.686C1060.64 303.613 1054.66 320.794 1054.66 343.229C1054.66 365.664 1060.49 382.987 1072.15 395.198C1084.11 407.126 1099.05 413.089 1116.99 413.089Z" fill="white"/>
<path d="M1262.48 342.377C1262.48 318.522 1267.41 297.366 1277.28 278.907C1287.44 260.448 1301.04 246.248 1318.08 236.309C1335.42 226.37 1354.7 221.4 1375.93 221.4C1394.46 221.4 1410.61 224.95 1424.36 232.049C1438.41 239.149 1449.62 248.094 1457.99 258.886V225.234H1521.22V461.225H1457.99V426.72C1449.92 437.796 1438.71 447.025 1424.36 454.409C1410.31 461.509 1394.02 465.058 1375.48 465.058C1354.55 465.058 1335.42 459.947 1318.08 449.723C1301.04 439.5 1287.44 425.159 1277.28 406.7C1267.41 387.957 1262.48 366.516 1262.48 342.377ZM1457.99 343.229C1457.99 328.746 1455 316.393 1449.02 306.169C1443.04 295.662 1434.97 287.71 1424.81 282.314C1414.64 276.635 1403.73 273.795 1392.07 273.795C1380.41 273.795 1369.65 276.493 1359.79 281.888C1349.92 287.284 1341.85 295.236 1335.57 305.743C1329.59 315.967 1326.6 328.178 1326.6 342.377C1326.6 356.576 1329.59 369.072 1335.57 379.863C1341.85 390.37 1349.92 398.464 1359.79 404.144C1369.95 409.823 1380.71 412.663 1392.07 412.663C1403.73 412.663 1414.64 409.965 1424.81 404.57C1434.97 398.89 1443.04 390.938 1449.02 380.715C1455 370.208 1457.99 357.712 1457.99 343.229Z" fill="white"/>
<path d="M1715.6 461.225L1631.3 360.694V461.225H1568.52V146.002H1631.3V325.338L1714.71 225.234H1796.32L1686.9 343.655L1797.22 461.225H1715.6Z" fill="white"/>
<path d="M2047.32 338.117C2047.32 346.637 2046.72 354.304 2045.52 361.12H1863.91C1865.41 378.159 1871.69 391.506 1882.75 401.162C1893.81 410.817 1907.41 415.645 1923.55 415.645C1946.87 415.645 1963.46 406.132 1973.33 387.105H2041.04C2033.87 409.823 2020.11 428.566 1999.79 443.334C1979.46 457.817 1954.49 465.058 1924.9 465.058C1900.98 465.058 1879.46 460.089 1860.33 450.149C1841.49 439.926 1826.69 425.585 1815.93 407.126C1805.47 388.667 1800.24 367.368 1800.24 343.229C1800.24 318.806 1805.47 297.366 1815.93 278.907C1826.39 260.448 1841.04 246.248 1859.88 236.309C1878.71 226.37 1900.38 221.4 1924.9 221.4C1948.52 221.4 1969.59 226.228 1988.13 235.883C2006.96 245.538 2021.46 259.312 2031.62 277.203C2042.09 294.81 2047.32 315.115 2047.32 338.117ZM1982.3 321.078C1982 305.743 1976.17 293.532 1964.81 284.444C1953.45 275.073 1939.55 270.387 1923.1 270.387C1907.56 270.387 1894.41 274.931 1883.64 284.018C1873.18 292.822 1866.75 305.175 1864.36 321.078H1982.3Z" fill="white"/>
<path d="M2062.98 342.377C2062.98 318.522 2067.92 297.366 2077.78 278.907C2087.95 260.448 2101.7 246.248 2119.04 236.309C2136.38 226.37 2155.66 221.4 2176.88 221.4C2193.03 221.4 2208.42 224.808 2223.07 231.623C2237.72 238.155 2249.38 246.958 2258.05 258.034V146.002H2321.73V461.225H2258.05V426.294C2250.28 437.938 2239.37 447.309 2225.31 454.409C2211.26 461.509 2194.97 465.058 2176.44 465.058C2155.51 465.058 2136.38 459.947 2119.04 449.723C2101.7 439.5 2087.95 425.159 2077.78 406.7C2067.92 387.957 2062.98 366.516 2062.98 342.377ZM2258.5 343.229C2258.5 328.746 2255.51 316.393 2249.53 306.169C2243.55 295.662 2235.48 287.71 2225.31 282.314C2215.15 276.635 2204.24 273.795 2192.58 273.795C2180.92 273.795 2170.16 276.493 2160.29 281.888C2150.43 287.284 2142.36 295.236 2136.08 305.743C2130.1 315.967 2127.11 328.178 2127.11 342.377C2127.11 356.576 2130.1 369.072 2136.08 379.863C2142.36 390.37 2150.43 398.464 2160.29 404.144C2170.46 409.823 2181.22 412.663 2192.58 412.663C2204.24 412.663 2215.15 409.965 2225.31 404.57C2235.48 398.89 2243.55 390.938 2249.53 380.715C2255.51 370.208 2258.5 357.712 2258.5 343.229Z" fill="white"/>
</svg>
