<svg xmlns="http://www.w3.org/2000/svg" xml:space="preserve" width="2048" height="2048" style="shape-rendering:geometricPrecision;text-rendering:geometricPrecision;image-rendering:optimizeQuality;fill-rule:evenodd;clip-rule:evenodd" viewBox="0 0 2048 2048"><defs><style>.fil0{fill:none}.fil9{fill:#2f303d}.fil3{fill:#424242}.fil10{fill:#fbc02d}</style></defs><g id="Layer_x0020_1"><path class="fil0" d="M255.999 256.001H1792V1792H255.999z"/><path class="fil0" d="M0 0h2048v2048H0z"/><path class="fil0" d="M255.999 255.999h1536v1536h-1536z"/><path class="fil0" d="M0 0h2048v2048H0z"/><g id="_520282616"><path id="_520298480" style="fill:#c1c1c1" d="M698.238 1326.43h201.378v117.389H698.238z"/><path id="_520285952" d="M285.347 592.74h1027.16c16.142 0 29.347 13.835 29.347 30.744v672.197c0 16.908-13.207 30.744-29.347 30.744H285.347c-16.14 0-29.347-13.834-29.347-30.744V623.484c0-16.91 13.205-30.744 29.347-30.744z" style="fill:#bdbdbd"/><path id="_520293152" class="fil3" d="M285.347 592.74h1027.16c16.142 0 29.347 13.835 29.347 30.744v584.155c0 16.909-13.206 30.744-29.347 30.744H285.347c-16.141 0-29.347-13.834-29.347-30.744V623.484c0-16.91 13.205-30.744 29.347-30.744z"/><path id="_520305992" style="fill:#6bc4ea" d="M436.976 1201.7h868.194V629.423H868.269h26.491z"/><path id="_520300496" style="fill:#66bee3" d="M292.684 629.423V1201.7h168.564L960.08 629.423z"/><path id="_520280840" style="fill:#d6d6d6" d="M666.863 1442.64h264.128v12.618H666.863z"/><path id="_520298504" class="fil3" d="M1242.66 1283.5h25.497v6.711h-25.497z"/><path id="_520307288" style="fill:#1de9b6" d="M1291.23 1283.5h25.497v6.711h-25.497z"/><g><path id="_520294280" d="M1468.38 555.439h273.207c13.882 0 26.487 6.948 35.616 18.142 9.13 11.192 14.797 26.649 14.797 43.669v813.5c0 17.02-5.667 32.477-14.797 43.67-9.129 11.193-21.735 18.141-35.616 18.141H1468.38c-13.882 0-26.487-6.948-35.616-18.142-9.13-11.192-14.797-26.649-14.797-43.668V617.25c0-17.02 5.667-32.477 14.797-43.67 9.129-11.193 21.735-18.141 35.616-18.141z" style="fill:#434452"/><path id="_520275704" class="fil9" d="M1654.06 1492.56v-319.02h-38.01v319.02z"/><path id="_520281872" class="fil9" d="M1593.92 1492.56v-319.02h-38.01v319.02z"/><path id="_520303952" class="fil10" d="M1604.98 1064.09c10.873 0 19.689 8.883 19.689 19.84 0 10.958-8.816 19.84-19.689 19.84-10.874 0-19.69-8.881-19.69-19.84 0-10.957 8.816-19.84 19.69-19.84z"/><path id="_520304168" class="fil9" d="M1421.7 633.532h366.57v117.972H1421.7z"/><path id="_520294688" style="fill:#232430" d="M1493.52 667.415h222.93v50.204h-222.93z"/><path id="_520298984" class="fil10" d="M1604.98 1123.92c5.674 0 10.274 4.636 10.274 10.354 0 5.719-4.6 10.354-10.274 10.354-5.675 0-10.276-4.636-10.276-10.354 0-5.718 4.6-10.354 10.276-10.354z"/></g></g></g></svg>