<svg xmlns="http://www.w3.org/2000/svg" xml:space="preserve" width="2048" height="2048" style="shape-rendering:geometricPrecision;text-rendering:geometricPrecision;image-rendering:optimizeQuality;fill-rule:evenodd;clip-rule:evenodd" viewBox="0 0 2048 2048"><defs><style>.fil1{fill:#051324}.fil2{fill:#4fc3f7}.fil4{fill:#fff}</style></defs><g id="Layer_x0020_1"><path d="M584 252h847c10 0 19 2 28 6s17 9 23 16c7 7 12 15 16 23 4 9 6 18 6 28v1391c0 10-2 19-6 28s-9 17-16 23c-7 7-15 12-23 16-9 4-18 6-28 6H584c-10 0-19-2-28-6s-17-9-23-16c-7-7-12-15-16-23-4-9-6-18-6-28V325c0-10 2-19 6-28s9-17 16-23c7-7 15-12 23-16 9-4 18-6 28-6z" style="fill:#15262e"/><path class="fil1" d="M608 374h800v1094H608z"/><path class="fil2" d="M618 391h777v1077H618z"/><path style="fill:#81d4fa" d="M732 391h663v1077h-176z"/><path class="fil2" d="M618 391h114l487 1077H618z"/><path class="fil4" d="M1036 1566c-4-2-8-2-12-2-5 0-9 1-12 2-4 2-7 4-10 7s-5 7-7 10c-2 4-2 8-2 12s1 9 2 12c2 4 4 8 7 11s6 5 10 7 8 2 12 2 9-1 12-2c4-2 8-4 10-7 3-3 5-7 7-11s2-8 2-12c0-5-1-9-2-12-2-4-4-7-7-10s-6-5-10-7z"/><path class="fil4" d="M1008 1524c13 0 25 3 37 7 12 5 22 12 31 21s16 19 21 31c5 11 7 24 7 37s-3 25-7 37c-5 12-12 22-21 31s-19 16-31 21c-11 5-24 7-37 7s-25-3-37-7c-12-5-22-12-31-21s-16-19-21-31c-5-11-7-24-7-37s3-25 7-37c5-12 12-22 21-31s19-16 31-21c11-5 24-7 37-7z"/><rect x="895" y="309" width="226" height="25" rx="13" ry="13" style="fill:#020d1a"/><path class="fil1" d="M1008 1542c10 0 20 2 30 6s18 10 25 17 13 16 17 25 6 19 6 30c0 10-2 20-6 30-4 9-10 18-17 25s-16 13-25 17-19 6-30 6c-10 0-20-2-30-6-9-4-18-10-25-17s-13-16-17-25-6-19-6-30c0-10 2-20 6-30s10-18 17-25 16-13 25-17 19-6 30-6z"/><path style="fill:none" d="M0 0h2048v2048H0z"/></g></svg>