<?xml version="1.0" encoding="UTF-8"?>
<!DOCTYPE svg PUBLIC "-//W3C//DTD SVG 1.1//EN" "http://www.w3.org/Graphics/SVG/1.1/DTD/svg11.dtd">
<!-- Creator: CorelDRAW -->
<svg xmlns="http://www.w3.org/2000/svg" xml:space="preserve" width="176px" height="29px" version="1.1" style="shape-rendering:geometricPrecision; text-rendering:geometricPrecision; image-rendering:optimizeQuality; fill-rule:evenodd; clip-rule:evenodd"
viewBox="0 0 176 28.96"
 xmlns:xlink="http://www.w3.org/1999/xlink"
 xmlns:xodm="http://www.corel.com/coreldraw/odm/2003">
 <defs>
  <style type="text/css">
   <![CDATA[
    .fil2 {fill:#38D47F}
    .fil1 {fill:#FF2F2F}
    .fil0 {fill:white}
   ]]>
  </style>
 </defs>
 <g id="Layer_x0020_1">
  <metadata id="CorelCorpID_0Corel-Layer"/>
  <g id="_2394051365552">
   <path class="fil0" d="M74.64 21.5l-2.6 -5.2c-0.25,-0.5 -0.6,-0.89 -1.03,-1.15 -0.42,-0.26 -0.93,-0.4 -1.49,-0.4l-0.01 0c-0.56,0 -1.07,0.14 -1.49,0.4 -0.43,0.26 -0.78,0.65 -1.03,1.15l-2.6 5.2 10.25 0zm-19.1 6.96l-13.34 0c-3.23,0 -5.29,-2.19 -6.17,-4.99 -0.32,-1.02 -0.48,-2.12 -0.48,-3.21 0,-1.09 0.16,-2.18 0.48,-3.2 0.88,-2.8 2.94,-4.99 6.17,-4.99l13.34 0 0 2.68 -13.34 0c-1.85,0 -3.07,1.36 -3.61,3.11 -0.24,0.75 -0.36,1.57 -0.36,2.4 0,0.83 0.12,1.66 0.36,2.41 0.54,1.75 1.76,3.11 3.61,3.11l13.34 0 0 2.68zm28.24 0l0 -16.39 3.06 0c1.32,0 2.56,0.35 3.63,1.01 1.05,0.66 1.93,1.61 2.52,2.79l3.79 7.59c0.37,0.73 0.9,1.32 1.54,1.72 0.64,0.39 1.4,0.6 2.23,0.6l0.38 0 0 -13.71 2.68 0 0 16.39 -3.06 0c-1.32,0 -2.56,-0.36 -3.63,-1.01 -1.06,-0.66 -1.93,-1.61 -2.52,-2.8l-3.79 -7.58c-0.37,-0.74 -0.9,-1.32 -1.55,-1.72 -0.63,-0.39 -1.39,-0.6 -2.22,-0.6l-0.38 0 0 13.71 -2.68 0zm51.04 -7.82l11.52 0c0.81,0 1.55,-0.33 2.08,-0.87 0.53,-0.53 0.86,-1.27 0.86,-2.08 0,-0.81 -0.33,-1.55 -0.86,-2.08 -0.53,-0.53 -1.27,-0.86 -2.08,-0.86l-11.52 0 0 5.89zm-2.68 7.82l0 -5.14 0 -2.68 0 -8.57 1.34 0 12.86 0c1.55,0 2.96,0.63 3.97,1.65 1.02,1.01 1.65,2.42 1.65,3.97 0,1.55 -0.63,2.96 -1.65,3.98 -0.11,0.1 -0.22,0.21 -0.33,0.31 0.11,0.1 0.22,0.2 0.33,0.31 1.02,1.02 1.65,2.42 1.65,3.97l0 2.2 -2.68 0 0 -2.2c0,-0.81 -0.33,-1.54 -0.86,-2.08 -0.53,-0.53 -1.27,-0.86 -2.08,-0.86l-11.52 0 0 5.14 -2.68 0zm23.76 -16.39l7.17 8.48c0.07,0.07 0.13,0.15 0.19,0.23 0.06,-0.08 0.12,-0.16 0.18,-0.23l7.18 -8.48 3.5 0 -8.64 10.21c-0.3,0.35 -0.52,0.73 -0.67,1.12 -0.14,0.4 -0.21,0.83 -0.21,1.3l0 3.05 0 0.71 -2.68 0 0 -0.71 0 -3.05c0,-0.47 -0.07,-0.9 -0.22,-1.3 -0.14,-0.39 -0.37,-0.77 -0.67,-1.12l-8.64 -10.21 3.51 0zm-32.9 9.43l-2.6 -5.2c-0.25,-0.5 -0.6,-0.89 -1.03,-1.15 -0.42,-0.26 -0.93,-0.4 -1.49,-0.4l-0.01 0c-0.56,0 -1.07,0.14 -1.49,0.4 -0.43,0.26 -0.79,0.65 -1.03,1.15l-2.6 5.2 10.25 0zm-16.72 6.96l6.68 -13.35c0.47,-0.95 1.17,-1.71 2.02,-2.23 0.85,-0.53 1.83,-0.81 2.89,-0.81l0.01 0c1.05,0 2.04,0.28 2.89,0.81 0.85,0.52 1.54,1.28 2.01,2.23l6.68 13.35 -2.98 0 -2.14 -4.29 -12.93 0 -2.14 4.29 -2.99 0zm-21.29 -20.99l0 -4.84 3.13 0 0 -1.13 -7.45 0 0 1.13 3.14 0 0 4.84 1.18 0zm-5.5 -5.97l-5.72 0c-0.95,0 -1.73,0.75 -1.73,1.67l0 0.01c0,0.86 0.68,1.58 1.56,1.66l4.21 0.41c0.29,0.02 0.51,0.26 0.51,0.54l0 0.01c0,0.29 -0.25,0.53 -0.56,0.53l-5.72 0 0 1.14 5.72 0c0.96,0 1.73,-0.75 1.73,-1.67l0 -0.01c0,-0.86 -0.68,-1.58 -1.56,-1.67l-4.21 -0.4c-0.29,-0.03 -0.51,-0.26 -0.5,-0.54l0 -0.01c0,-0.3 0.25,-0.54 0.55,-0.54l5.72 0 0 -1.13zm-15.69 0l0 5.97 1.18 0 0 -2.42 1.84 0c0.49,-0.01 0.95,0.19 1.27,0.54l1.75 1.88 1.58 0 -2.46 -2.64c-0.12,-0.12 -0.25,-0.24 -0.39,-0.35 0.14,-0.1 0.27,-0.22 0.39,-0.35l2.46 -2.63 -1.58 0 -1.75 1.87c-0.32,0.36 -0.78,0.56 -1.27,0.55l-1.84 0 0 -2.42 -1.18 0zm-7.45 5.97l0 -4.84 0.04 0c0.55,-0.01 1.05,0.29 1.29,0.77l1.39 2.67c0.43,0.86 1.35,1.41 2.34,1.4l1.21 0 0 -5.97 -1.17 0 0 4.83 -0.04 0c-0.55,0.02 -1.06,-0.28 -1.29,-0.76l-1.39 -2.68c-0.44,-0.86 -1.35,-1.4 -2.34,-1.39l-1.22 0 0 5.97 1.18 0zm-2.36 0l0 -5.97 -1.17 0 0 5.97 1.17 0zm-8.63 -5.97l-1.18 0 0 5.97 1.18 0 0 -2.42 5.1 0 0 2.42 1.18 0 0 -5.97 -1.18 0 0 2.42 -5.1 0 0 -2.42zm-5.49 5.97l0 -4.84 3.14 0 0 -1.13 -7.46 0 0 1.13 3.14 0 0 4.84 1.18 0zm18.06 20.99l6.67 -13.35c0.48,-0.95 1.17,-1.71 2.02,-2.23 0.85,-0.53 1.84,-0.81 2.89,-0.81l0.01 0c1.05,0 2.04,0.28 2.89,0.81 0.85,0.52 1.54,1.28 2.02,2.23l6.67 13.35 -2.98 0 -2.14 -4.29 -12.93 0 -2.14 4.29 -2.98 0z"/>
   <path class="fil1" d="M24.83 1.5c-1.24,0 -2.25,1.01 -2.25,2.25 0,1.24 1.01,2.25 2.25,2.25 1.24,0 2.24,-1.01 2.24,-2.25 0,-1.24 -1,-2.25 -2.24,-2.25z"/>
   <path class="fil2" d="M2.36 1.5l19.96 0c-0.54,0.6 -0.86,1.39 -0.86,2.25 0,1.86 1.51,3.37 3.37,3.37 0.86,0 1.65,-0.32 2.24,-0.86l0 19.95c0,1.24 -1,2.25 -2.24,2.25l-6.69 0 -5.67 0 0.03 -0.02c5.55,-3.46 6.67,-8.4 5.9,-10.5 -0.99,-2.72 1,-6.92 1,-6.92 0,0 3.25,-1.16 3.19,-1.63 -0.03,-0.22 -3.13,-0.16 -3.13,-0.16 -7.51,-5.36 -10.45,2.79 -11.14,5.7 -1.75,0.19 -6.43,6.9 -6.43,6.9 -0.55,0.29 -1.15,0.84 -1.75,1.55 0,0.01 -0.01,0.02 -0.02,0.03l0 -19.66c0,-1.24 1,-2.25 2.24,-2.25z"/>
  </g>
 </g>
</svg>
