<svg version="1.1" xmlns="http://www.w3.org/2000/svg" viewBox="0 0 243.19998168945312 297.59999084472656" width="243.19998168945312" height="297.59999084472656" class="excalidraw-svg">
  <!-- svg-source:excalidraw -->
  
  <defs>
    <style class="style-fonts">
      
    </style>
    
  </defs>
  <rect x="0" y="0" width="243.19998168945312" height="297.59999084472656" fill="#ffffff"/><g stroke-linecap="round" transform="translate(10 10) rotate(0 111.59999084472656 138.79999542236328)"><path d="M32 0 C93.43 -1.95, 152.64 -0.31, 191.2 0 M32 0 C92.97 0.43, 153.94 -0.02, 191.2 0 M191.2 0 C213.68 1.44, 224.22 12.16, 223.2 32 M191.2 0 C213.17 0.4, 224.65 12.46, 223.2 32 M223.2 32 C224.95 110.22, 223.97 183.58, 223.2 245.6 M223.2 32 C221.9 116.36, 221.29 199.63, 223.2 245.6 M223.2 245.6 C224.32 268.32, 212.74 278.08, 191.2 277.6 M223.2 245.6 C221.88 266.55, 212.22 276.7, 191.2 277.6 M191.2 277.6 C141 278.12, 91.76 275.73, 32 277.6 M191.2 277.6 C142.99 277.13, 95.05 277.85, 32 277.6 M32 277.6 C10.01 276.36, 0.52 265.17, 0 245.6 M32 277.6 C12.81 276.48, -0.02 268.46, 0 245.6 M0 245.6 C-2.24 176.98, -2.01 105.02, 0 32 M0 245.6 C1.88 172.31, 1.15 100.43, 0 32 M0 32 C-0.92 9.86, 9.13 -1.93, 32 0 M0 32 C-0.47 9.62, 12.69 1.94, 32 0" stroke="#1e1e1e" stroke-width="2" fill="none"/></g></svg>