<svg version="1.1" xmlns="http://www.w3.org/2000/svg" viewBox="0 0 759 302" width="759" height="302" class="excalidraw-svg">
  <!-- svg-source:excalidraw -->
  
  <defs>
    <style class="style-fonts">
      
    </style>
    
  </defs>
  <rect x="0" y="0" width="759" height="302" fill="#ffffff"/><g stroke-linecap="round" transform="translate(10 10) rotate(0 122 61.5)"><path d="M153.75 15.5 C175.37 26.85, 197.21 38.9, 213.25 46.5 M153.75 15.5 C177.59 28.09, 200.88 40.88, 213.25 46.5 M213.25 46.5 C244.7 63.88, 243.27 62.28, 213.25 77.5 M213.25 46.5 C242.83 61.6, 245.4 59.74, 213.25 77.5 M213.25 77.5 C191.35 87.6, 168.38 99.71, 153.75 107.5 M213.25 77.5 C193.74 86.57, 175.09 96.42, 153.75 107.5 M153.75 107.5 C121.25 123.8, 124.7 121.25, 92.25 107.5 M153.75 107.5 C124.5 123.93, 123.45 123.06, 92.25 107.5 M92.25 107.5 C72.02 98.31, 49.48 85.12, 30.75 77.5 M92.25 107.5 C79.26 101.48, 66.15 95.25, 30.75 77.5 M30.75 77.5 C1.42 61.6, 0.06 62.85, 30.75 46.5 M30.75 77.5 C-1.74 63.38, 1.2 60.55, 30.75 46.5 M30.75 46.5 C49.09 38.97, 68.04 27.08, 92.25 15.5 M30.75 46.5 C44.89 39.09, 60.88 32.01, 92.25 15.5 M92.25 15.5 C121.54 0.97, 121.86 -1.93, 153.75 15.5 M92.25 15.5 C123.34 1.24, 121.99 -0.4, 153.75 15.5" stroke="#1e1e1e" stroke-width="2" fill="none"/></g><g stroke-linecap="round" transform="translate(295 136) rotate(0 227 78)"><path d="M32 0 C110.26 2.19, 189 1.39, 422 0 M32 0 C161.58 -0.17, 290.68 0.01, 422 0 M422 0 C442.81 -1.75, 454.8 12.37, 454 32 M422 0 C441.32 1.5, 454.93 11.12, 454 32 M454 32 C454.53 61.72, 456.23 89.27, 454 124 M454 32 C452.77 56.33, 453.61 80.43, 454 124 M454 124 C454.92 146.76, 442.93 156.06, 422 156 M454 124 C454.98 143.6, 444.71 157.2, 422 156 M422 156 C328.51 153.84, 237.69 154.25, 32 156 M422 156 C335.54 155.61, 249.22 156.29, 32 156 M32 156 C11.42 154.54, 0.97 144.19, 0 124 M32 156 C8.44 156.34, 1.24 144.33, 0 124 M0 124 C1.4 97, -1.8 71.02, 0 32 M0 124 C-0.19 93.31, 0.59 61.19, 0 32 M0 32 C1.49 9.96, 11.4 -0.97, 32 0 M0 32 C2.28 10.5, 10.46 1.16, 32 0" stroke="#1e1e1e" stroke-width="2" fill="none"/></g></svg>