<svg version="1.1" xmlns="http://www.w3.org/2000/svg" viewBox="0 0 658.8000494140625 400.7562404741211" width="658.8000494140625" height="400.7562404741211" class="excalidraw-svg">
  <!-- svg-source:excalidraw -->
  
  <defs>
    <style class="style-fonts">
      
    </style>
    
  </defs>
  <rect x="0" y="0" width="658.8000494140625" height="400.7562404741211" fill="#ffffff"/><g stroke-linecap="round" transform="translate(247.80001879296879 10) rotate(0 81.60000610351562 81.60000610351562)"><path d="M32 0 C71.47 2.75, 108.31 0.27, 131.2 0 M32 0 C70.92 -0.08, 109.43 -0.29, 131.2 0 M131.2 0 C153.99 -1.48, 162.39 12.24, 163.2 32 M131.2 0 C154.67 1.98, 163.81 9.02, 163.2 32 M163.2 32 C162.71 56.62, 161.93 83.49, 163.2 131.2 M163.2 32 C161.76 67.21, 163.36 102.67, 163.2 131.2 M163.2 131.2 C164.66 153.88, 152.44 164.42, 131.2 163.2 M163.2 131.2 C163.47 152.36, 152.99 164.38, 131.2 163.2 M131.2 163.2 C107.79 164.61, 86.15 163.7, 32 163.2 M131.2 163.2 C99.11 162.61, 68.99 163.36, 32 163.2 M32 163.2 C10.61 164.85, -0.72 154.37, 0 131.2 M32 163.2 C12.38 162.52, 2.13 151.3, 0 131.2 M0 131.2 C0.3 97.18, 1.44 59.52, 0 32 M0 131.2 C-1.26 103.18, 0.2 73.54, 0 32 M0 32 C-0.29 11.24, 11.38 0.29, 32 0 M0 32 C-1.8 12.05, 12.89 -0.93, 32 0" stroke="#1e1e1e" stroke-width="2" fill="none"/></g><g stroke-linecap="round" transform="translate(10 10.000000452392612) rotate(0 81.60000610351562 81.60000610351562)"><path d="M32 0 C68.37 -1.5, 107.13 1, 131.2 0 M32 0 C68.94 1.25, 107.41 0.06, 131.2 0 M131.2 0 C151.51 1.77, 162.37 8.82, 163.2 32 M131.2 0 C151.71 1.06, 163.7 12.6, 163.2 32 M163.2 32 C162.02 52.96, 163.98 73.76, 163.2 131.2 M163.2 32 C163.58 61.6, 162.38 91.47, 163.2 131.2 M163.2 131.2 C161.28 152.96, 151.3 163.94, 131.2 163.2 M163.2 131.2 C164.82 150.25, 150.78 161.61, 131.2 163.2 M131.2 163.2 C110.17 164.04, 91.49 163.9, 32 163.2 M131.2 163.2 C101.59 163.42, 71.61 163.49, 32 163.2 M32 163.2 C9.08 163.35, -1.96 153.47, 0 131.2 M32 163.2 C11.29 163.7, -2.13 150.59, 0 131.2 M0 131.2 C-1.77 92.42, 0.75 53.87, 0 32 M0 131.2 C1.04 107.33, 1.02 81.77, 0 32 M0 32 C0.6 10.69, 9.84 -0.37, 32 0 M0 32 C-0.91 11.87, 9.67 2.1, 32 0" stroke="#1e1e1e" stroke-width="2" fill="none"/></g><g stroke-linecap="round" transform="translate(485.6000372070313 10.00000055590823) rotate(0 81.60000610351562 81.60000610351562)"><path d="M32 0 C52.76 1.37, 75.12 1.26, 131.2 0 M32 0 C54.53 -0.06, 77.69 -0.12, 131.2 0 M131.2 0 C150.97 -1.8, 161.3 8.87, 163.2 32 M131.2 0 C150.66 2.17, 163.22 12.91, 163.2 32 M163.2 32 C164.05 54.19, 161.3 74.82, 163.2 131.2 M163.2 32 C163.13 53.01, 163.43 73.51, 163.2 131.2 M163.2 131.2 C161.35 152.8, 153.91 164.61, 131.2 163.2 M163.2 131.2 C162.73 154.81, 150.84 163.32, 131.2 163.2 M131.2 163.2 C101.88 165.48, 70.07 164, 32 163.2 M131.2 163.2 C93.2 163.13, 55.67 163.23, 32 163.2 M32 163.2 C11.89 161.22, 0.74 150.71, 0 131.2 M32 163.2 C9.36 162.86, -1.36 151, 0 131.2 M0 131.2 C-0.94 104.27, 0.76 74.33, 0 32 M0 131.2 C-0.33 110.09, -1.15 89.38, 0 32 M0 32 C0.21 9.74, 9.91 -1.26, 32 0 M0 32 C2.19 9.3, 10.1 -0.4, 32 0" stroke="#1e1e1e" stroke-width="2" fill="none"/></g><g stroke-linecap="round" transform="translate(247.80001879296879 227.55622826708986) rotate(0 81.60000610351562 81.60000610351562)"><path d="M32 0 C69.09 1.83, 107.76 -0.92, 131.2 0 M32 0 C71.76 0.23, 108.82 -0.4, 131.2 0 M131.2 0 C150.62 -0.99, 161.84 12.28, 163.2 32 M131.2 0 C154.12 -1.37, 163.66 8.76, 163.2 32 M163.2 32 C162.98 68.32, 163.32 108.38, 163.2 131.2 M163.2 32 C162.62 66.99, 162.97 102.58, 163.2 131.2 M163.2 131.2 C162.05 151.71, 152.48 163.14, 131.2 163.2 M163.2 131.2 C164.41 152.22, 151.34 165.45, 131.2 163.2 M131.2 163.2 C102.24 163.73, 73.16 161.49, 32 163.2 M131.2 163.2 C106.42 161.74, 82.29 162.55, 32 163.2 M32 163.2 C10.56 162.14, 0.41 151.49, 0 131.2 M32 163.2 C9.78 164.8, 0.49 154.62, 0 131.2 M0 131.2 C-0.98 96.65, 0.63 60.16, 0 32 M0 131.2 C-0.29 101.7, -0.38 72.08, 0 32 M0 32 C0.16 9.32, 11.86 1.92, 32 0 M0 32 C-0.55 11.58, 11.85 1.66, 32 0" stroke="#1e1e1e" stroke-width="2" fill="none"/></g></svg>